<mxfile host="app.diagrams.net" modified="2024-05-28T11:52:25.642Z" agent="Mozilla/5.0 (X11; Linux x86_64; rv:125.0) Gecko/20100101 Firefox/125.0" etag="CROwYFh4LrYLbB7Q2J4G" version="24.4.6" type="device">
  <diagram name="Страница — 1" id="C_KTBG0YvWXX7qI13WYK">
    <mxGraphModel dx="1175" dy="4116" grid="1" gridSize="10" guides="1" tooltips="1" connect="1" arrows="1" fold="1" page="1" pageScale="1" pageWidth="827" pageHeight="1169" math="0" shadow="0">
      <root>
        <mxCell id="0" />
        <mxCell id="1" parent="0" />
        <mxCell id="_ccRFipnc-8ZUnOI4sxT-1" value="SolvingResult" style="swimlane;fontStyle=1;align=center;verticalAlign=top;childLayout=stackLayout;horizontal=1;startSize=26;horizontalStack=0;resizeParent=1;resizeParentMax=0;resizeLast=0;collapsible=1;marginBottom=0;whiteSpace=wrap;html=1;" vertex="1" parent="1">
          <mxGeometry x="530" y="-1130" width="310" height="140" as="geometry" />
        </mxCell>
        <mxCell id="_ccRFipnc-8ZUnOI4sxT-3" value="" style="line;strokeWidth=1;fillColor=none;align=left;verticalAlign=middle;spacingTop=-1;spacingLeft=3;spacingRight=3;rotatable=0;labelPosition=right;points=[];portConstraint=eastwest;strokeColor=inherit;" vertex="1" parent="_ccRFipnc-8ZUnOI4sxT-1">
          <mxGeometry y="26" width="310" height="8" as="geometry" />
        </mxCell>
        <mxCell id="_ccRFipnc-8ZUnOI4sxT-4" value="&lt;div&gt;+ Successful(vars: Vector):&amp;nbsp;SolvingResult &amp;lt;&amp;lt;static&amp;gt;&amp;gt;&lt;br&gt;&lt;/div&gt;&lt;div&gt;+ Error(): SolvingResult &amp;lt;&amp;lt;static&amp;gt;&amp;gt;&lt;/div&gt;&lt;div&gt;+ GetSuccessfulness(): bool&lt;/div&gt;&lt;div&gt;+ GetVarsValuesRef(): Vector&amp;amp;&lt;/div&gt;&lt;div&gt;+ GetItersCount(): std::size_t&lt;br&gt;&lt;/div&gt;&lt;div&gt;+ SetItersCount(itersCount: std::size_t): SolvingStatus&amp;amp;&lt;/div&gt;" style="text;strokeColor=none;fillColor=none;align=left;verticalAlign=top;spacingLeft=4;spacingRight=4;overflow=hidden;rotatable=0;points=[[0,0.5],[1,0.5]];portConstraint=eastwest;whiteSpace=wrap;html=1;" vertex="1" parent="_ccRFipnc-8ZUnOI4sxT-1">
          <mxGeometry y="34" width="310" height="106" as="geometry" />
        </mxCell>
        <mxCell id="_ccRFipnc-8ZUnOI4sxT-5" value="Vector" style="swimlane;fontStyle=1;align=center;verticalAlign=top;childLayout=stackLayout;horizontal=1;startSize=26;horizontalStack=0;resizeParent=1;resizeParentMax=0;resizeLast=0;collapsible=1;marginBottom=0;whiteSpace=wrap;html=1;" vertex="1" parent="1">
          <mxGeometry x="530" y="-1260" width="310" height="110" as="geometry" />
        </mxCell>
        <mxCell id="_ccRFipnc-8ZUnOI4sxT-6" value="" style="line;strokeWidth=1;fillColor=none;align=left;verticalAlign=middle;spacingTop=-1;spacingLeft=3;spacingRight=3;rotatable=0;labelPosition=right;points=[];portConstraint=eastwest;strokeColor=inherit;" vertex="1" parent="_ccRFipnc-8ZUnOI4sxT-5">
          <mxGeometry y="26" width="310" height="8" as="geometry" />
        </mxCell>
        <mxCell id="_ccRFipnc-8ZUnOI4sxT-7" value="&lt;div&gt;+ Vector()&lt;/div&gt;&lt;div&gt;+ Vector(size: std::size_t)&lt;/div&gt;&lt;div&gt;+ operator [](index: std::size_t): double&amp;amp;&lt;/div&gt;&lt;div&gt;+ Size(): std::size_t&lt;br&gt;&lt;/div&gt;" style="text;strokeColor=none;fillColor=none;align=left;verticalAlign=top;spacingLeft=4;spacingRight=4;overflow=hidden;rotatable=0;points=[[0,0.5],[1,0.5]];portConstraint=eastwest;whiteSpace=wrap;html=1;" vertex="1" parent="_ccRFipnc-8ZUnOI4sxT-5">
          <mxGeometry y="34" width="310" height="76" as="geometry" />
        </mxCell>
        <mxCell id="_ccRFipnc-8ZUnOI4sxT-8" value="Matrix" style="swimlane;fontStyle=1;align=center;verticalAlign=top;childLayout=stackLayout;horizontal=1;startSize=26;horizontalStack=0;resizeParent=1;resizeParentMax=0;resizeLast=0;collapsible=1;marginBottom=0;whiteSpace=wrap;html=1;" vertex="1" parent="1">
          <mxGeometry x="740" y="-1430" width="250" height="150" as="geometry" />
        </mxCell>
        <mxCell id="_ccRFipnc-8ZUnOI4sxT-9" value="" style="line;strokeWidth=1;fillColor=none;align=left;verticalAlign=middle;spacingTop=-1;spacingLeft=3;spacingRight=3;rotatable=0;labelPosition=right;points=[];portConstraint=eastwest;strokeColor=inherit;" vertex="1" parent="_ccRFipnc-8ZUnOI4sxT-8">
          <mxGeometry y="26" width="250" height="8" as="geometry" />
        </mxCell>
        <mxCell id="_ccRFipnc-8ZUnOI4sxT-10" value="&lt;div&gt;+ Matrix()&lt;/div&gt;&lt;div&gt;+&amp;nbsp;Matrix(height: std::size_t, width: std::size_t)&lt;/div&gt;&lt;div&gt;+ At(index: std::size_t): double&amp;amp;&lt;/div&gt;&lt;div&gt;+ Width(): std::size_t&lt;/div&gt;&lt;div&gt;+ Height(): std::size_t&lt;/div&gt;&lt;div&gt;+ TryGetEdgeSize(): std::size_t&lt;/div&gt;&lt;div&gt;+ IsSquare(): bool&lt;/div&gt;" style="text;strokeColor=none;fillColor=none;align=left;verticalAlign=top;spacingLeft=4;spacingRight=4;overflow=hidden;rotatable=0;points=[[0,0.5],[1,0.5]];portConstraint=eastwest;whiteSpace=wrap;html=1;" vertex="1" parent="_ccRFipnc-8ZUnOI4sxT-8">
          <mxGeometry y="34" width="250" height="116" as="geometry" />
        </mxCell>
        <mxCell id="_ccRFipnc-8ZUnOI4sxT-11" value="AllocArray2D&amp;lt;T&amp;gt;" style="swimlane;fontStyle=1;align=center;verticalAlign=top;childLayout=stackLayout;horizontal=1;startSize=26;horizontalStack=0;resizeParent=1;resizeParentMax=0;resizeLast=0;collapsible=1;marginBottom=0;whiteSpace=wrap;html=1;" vertex="1" parent="1">
          <mxGeometry x="1105" y="-1520" width="290" height="120" as="geometry" />
        </mxCell>
        <mxCell id="_ccRFipnc-8ZUnOI4sxT-12" value="" style="line;strokeWidth=1;fillColor=none;align=left;verticalAlign=middle;spacingTop=-1;spacingLeft=3;spacingRight=3;rotatable=0;labelPosition=right;points=[];portConstraint=eastwest;strokeColor=inherit;" vertex="1" parent="_ccRFipnc-8ZUnOI4sxT-11">
          <mxGeometry y="26" width="290" height="8" as="geometry" />
        </mxCell>
        <mxCell id="_ccRFipnc-8ZUnOI4sxT-13" value="&lt;div&gt;+&amp;nbsp;AllocArray2D()&lt;/div&gt;&lt;div&gt;+&amp;nbsp;AllocArray2D(height: std::size_t, width: std::size_t)&lt;/div&gt;&lt;div&gt;+ At(index: std::size_t): T&amp;amp;&lt;/div&gt;&lt;div&gt;+ Width(): std::size_t&lt;/div&gt;&lt;div&gt;+ Height(): std::size_t&lt;/div&gt;" style="text;strokeColor=none;fillColor=none;align=left;verticalAlign=top;spacingLeft=4;spacingRight=4;overflow=hidden;rotatable=0;points=[[0,0.5],[1,0.5]];portConstraint=eastwest;whiteSpace=wrap;html=1;" vertex="1" parent="_ccRFipnc-8ZUnOI4sxT-11">
          <mxGeometry y="34" width="290" height="86" as="geometry" />
        </mxCell>
        <mxCell id="_ccRFipnc-8ZUnOI4sxT-16" value="SLESolver" style="swimlane;fontStyle=1;align=center;verticalAlign=top;childLayout=stackLayout;horizontal=1;startSize=26;horizontalStack=0;resizeParent=1;resizeParentMax=0;resizeLast=0;collapsible=1;marginBottom=0;whiteSpace=wrap;html=1;" vertex="1" parent="1">
          <mxGeometry x="870" y="-1200" width="430" height="180" as="geometry" />
        </mxCell>
        <mxCell id="_ccRFipnc-8ZUnOI4sxT-17" value="" style="line;strokeWidth=1;fillColor=none;align=left;verticalAlign=middle;spacingTop=-1;spacingLeft=3;spacingRight=3;rotatable=0;labelPosition=right;points=[];portConstraint=eastwest;strokeColor=inherit;" vertex="1" parent="_ccRFipnc-8ZUnOI4sxT-16">
          <mxGeometry y="26" width="430" height="8" as="geometry" />
        </mxCell>
        <mxCell id="_ccRFipnc-8ZUnOI4sxT-18" value="&lt;div&gt;&lt;div&gt;- SolveInternally(varsCoeffs: Matrix&amp;amp;&amp;amp;, freeCoeffs: Vector&amp;amp;&amp;amp;): SolvingResult&lt;br&gt;&lt;/div&gt;&lt;/div&gt;&lt;div&gt;+ SLESolver()&lt;br&gt;&lt;/div&gt;&lt;div&gt;+ SetEquationsCount(eqsCount: std::size_t)&lt;br&gt;&lt;/div&gt;&lt;div&gt;&lt;div&gt;+  SetVariablesCoefficients(varsCoeffs: auto&amp;amp;&amp;amp;)&lt;/div&gt;&lt;div&gt;&lt;div&gt;+ SetFreeCoefficients(freeCoeffs: auto&amp;amp;&amp;amp;) &lt;/div&gt;&lt;div&gt;&lt;div&gt;+ Solve()&lt;/div&gt;&lt;div&gt;+ IsSolvedSuccessfully(): std::optional&amp;lt;bool&amp;gt;&lt;/div&gt;&lt;div&gt;+ GetSolveOnce(): std::optional&amp;lt;Vector&amp;gt;&lt;/div&gt;&lt;div&gt;+ GetAlgoItersCount(): std::optional&amp;lt;std::size_t&amp;gt;&lt;/div&gt;&lt;/div&gt;&lt;/div&gt;&lt;/div&gt;" style="text;strokeColor=none;fillColor=none;align=left;verticalAlign=top;spacingLeft=4;spacingRight=4;overflow=hidden;rotatable=0;points=[[0,0.5],[1,0.5]];portConstraint=eastwest;whiteSpace=wrap;html=1;" vertex="1" parent="_ccRFipnc-8ZUnOI4sxT-16">
          <mxGeometry y="34" width="430" height="146" as="geometry" />
        </mxCell>
        <mxCell id="_ccRFipnc-8ZUnOI4sxT-19" value="LUPSolver" style="swimlane;fontStyle=1;align=center;verticalAlign=top;childLayout=stackLayout;horizontal=1;startSize=26;horizontalStack=0;resizeParent=1;resizeParentMax=0;resizeLast=0;collapsible=1;marginBottom=0;whiteSpace=wrap;html=1;" vertex="1" parent="1">
          <mxGeometry x="1350" y="-1020" width="160" height="60" as="geometry" />
        </mxCell>
        <mxCell id="_ccRFipnc-8ZUnOI4sxT-20" value="" style="line;strokeWidth=1;fillColor=none;align=left;verticalAlign=middle;spacingTop=-1;spacingLeft=3;spacingRight=3;rotatable=0;labelPosition=right;points=[];portConstraint=eastwest;strokeColor=inherit;" vertex="1" parent="_ccRFipnc-8ZUnOI4sxT-19">
          <mxGeometry y="26" width="160" height="8" as="geometry" />
        </mxCell>
        <mxCell id="_ccRFipnc-8ZUnOI4sxT-21" value="&amp;nbsp;" style="text;strokeColor=none;fillColor=none;align=left;verticalAlign=top;spacingLeft=4;spacingRight=4;overflow=hidden;rotatable=0;points=[[0,0.5],[1,0.5]];portConstraint=eastwest;whiteSpace=wrap;html=1;" vertex="1" parent="_ccRFipnc-8ZUnOI4sxT-19">
          <mxGeometry y="34" width="160" height="26" as="geometry" />
        </mxCell>
        <mxCell id="_ccRFipnc-8ZUnOI4sxT-22" value="GaussHoletskiySolver" style="swimlane;fontStyle=1;align=center;verticalAlign=top;childLayout=stackLayout;horizontal=1;startSize=26;horizontalStack=0;resizeParent=1;resizeParentMax=0;resizeLast=0;collapsible=1;marginBottom=0;whiteSpace=wrap;html=1;" vertex="1" parent="1">
          <mxGeometry x="1350" y="-1123" width="160" height="60" as="geometry" />
        </mxCell>
        <mxCell id="_ccRFipnc-8ZUnOI4sxT-23" value="" style="line;strokeWidth=1;fillColor=none;align=left;verticalAlign=middle;spacingTop=-1;spacingLeft=3;spacingRight=3;rotatable=0;labelPosition=right;points=[];portConstraint=eastwest;strokeColor=inherit;" vertex="1" parent="_ccRFipnc-8ZUnOI4sxT-22">
          <mxGeometry y="26" width="160" height="8" as="geometry" />
        </mxCell>
        <mxCell id="_ccRFipnc-8ZUnOI4sxT-24" value="&amp;nbsp;" style="text;strokeColor=none;fillColor=none;align=left;verticalAlign=top;spacingLeft=4;spacingRight=4;overflow=hidden;rotatable=0;points=[[0,0.5],[1,0.5]];portConstraint=eastwest;whiteSpace=wrap;html=1;" vertex="1" parent="_ccRFipnc-8ZUnOI4sxT-22">
          <mxGeometry y="34" width="160" height="26" as="geometry" />
        </mxCell>
        <mxCell id="_ccRFipnc-8ZUnOI4sxT-25" value="RotationSolver" style="swimlane;fontStyle=1;align=center;verticalAlign=top;childLayout=stackLayout;horizontal=1;startSize=26;horizontalStack=0;resizeParent=1;resizeParentMax=0;resizeLast=0;collapsible=1;marginBottom=0;whiteSpace=wrap;html=1;" vertex="1" parent="1">
          <mxGeometry x="1350" y="-1230" width="160" height="60" as="geometry" />
        </mxCell>
        <mxCell id="_ccRFipnc-8ZUnOI4sxT-26" value="" style="line;strokeWidth=1;fillColor=none;align=left;verticalAlign=middle;spacingTop=-1;spacingLeft=3;spacingRight=3;rotatable=0;labelPosition=right;points=[];portConstraint=eastwest;strokeColor=inherit;" vertex="1" parent="_ccRFipnc-8ZUnOI4sxT-25">
          <mxGeometry y="26" width="160" height="8" as="geometry" />
        </mxCell>
        <mxCell id="_ccRFipnc-8ZUnOI4sxT-27" value="&amp;nbsp;" style="text;strokeColor=none;fillColor=none;align=left;verticalAlign=top;spacingLeft=4;spacingRight=4;overflow=hidden;rotatable=0;points=[[0,0.5],[1,0.5]];portConstraint=eastwest;whiteSpace=wrap;html=1;" vertex="1" parent="_ccRFipnc-8ZUnOI4sxT-25">
          <mxGeometry y="34" width="160" height="26" as="geometry" />
        </mxCell>
        <mxCell id="_ccRFipnc-8ZUnOI4sxT-28" value="" style="endArrow=block;endSize=16;endFill=0;html=1;rounded=0;" edge="1" parent="1" source="_ccRFipnc-8ZUnOI4sxT-19" target="_ccRFipnc-8ZUnOI4sxT-18">
          <mxGeometry width="160" relative="1" as="geometry">
            <mxPoint x="959.9953164556962" y="-980" as="sourcePoint" />
            <mxPoint x="1046.3877215189873" y="-1050" as="targetPoint" />
          </mxGeometry>
        </mxCell>
        <mxCell id="_ccRFipnc-8ZUnOI4sxT-29" value="" style="endArrow=block;endSize=16;endFill=0;html=1;rounded=0;" edge="1" parent="1" source="_ccRFipnc-8ZUnOI4sxT-22" target="_ccRFipnc-8ZUnOI4sxT-18">
          <mxGeometry width="160" relative="1" as="geometry">
            <mxPoint x="967" y="-970" as="sourcePoint" />
            <mxPoint x="1053" y="-1040" as="targetPoint" />
          </mxGeometry>
        </mxCell>
        <mxCell id="_ccRFipnc-8ZUnOI4sxT-30" value="" style="endArrow=block;endSize=16;endFill=0;html=1;rounded=0;" edge="1" parent="1" source="_ccRFipnc-8ZUnOI4sxT-25" target="_ccRFipnc-8ZUnOI4sxT-16">
          <mxGeometry width="160" relative="1" as="geometry">
            <mxPoint x="967" y="-970" as="sourcePoint" />
            <mxPoint x="1053" y="-1040" as="targetPoint" />
          </mxGeometry>
        </mxCell>
        <mxCell id="_ccRFipnc-8ZUnOI4sxT-31" value="" style="endArrow=open;endFill=1;endSize=12;html=1;rounded=0;" edge="1" parent="1" source="_ccRFipnc-8ZUnOI4sxT-25" target="_ccRFipnc-8ZUnOI4sxT-13">
          <mxGeometry width="160" relative="1" as="geometry">
            <mxPoint x="930" y="-1230" as="sourcePoint" />
            <mxPoint x="1090" y="-1230" as="targetPoint" />
          </mxGeometry>
        </mxCell>
        <mxCell id="_ccRFipnc-8ZUnOI4sxT-32" value="" style="endArrow=open;endFill=1;endSize=12;html=1;rounded=0;" edge="1" parent="1" source="_ccRFipnc-8ZUnOI4sxT-18" target="_ccRFipnc-8ZUnOI4sxT-1">
          <mxGeometry width="160" relative="1" as="geometry">
            <mxPoint x="760" y="-1120" as="sourcePoint" />
            <mxPoint x="920" y="-1120" as="targetPoint" />
          </mxGeometry>
        </mxCell>
        <mxCell id="_ccRFipnc-8ZUnOI4sxT-33" value="" style="endArrow=open;endFill=1;endSize=12;html=1;rounded=0;" edge="1" parent="1" source="_ccRFipnc-8ZUnOI4sxT-18" target="_ccRFipnc-8ZUnOI4sxT-5">
          <mxGeometry width="160" relative="1" as="geometry">
            <mxPoint x="700" y="-1030" as="sourcePoint" />
            <mxPoint x="860" y="-1030" as="targetPoint" />
          </mxGeometry>
        </mxCell>
        <mxCell id="_ccRFipnc-8ZUnOI4sxT-34" value="" style="endArrow=open;endFill=1;endSize=12;html=1;rounded=0;" edge="1" parent="1" source="_ccRFipnc-8ZUnOI4sxT-16" target="_ccRFipnc-8ZUnOI4sxT-8">
          <mxGeometry width="160" relative="1" as="geometry">
            <mxPoint x="730" y="-1220" as="sourcePoint" />
            <mxPoint x="890" y="-1220" as="targetPoint" />
          </mxGeometry>
        </mxCell>
        <mxCell id="_ccRFipnc-8ZUnOI4sxT-36" value="" style="endArrow=open;endFill=1;endSize=12;html=1;rounded=0;" edge="1" parent="1" source="_ccRFipnc-8ZUnOI4sxT-1" target="_ccRFipnc-8ZUnOI4sxT-5">
          <mxGeometry width="160" relative="1" as="geometry">
            <mxPoint x="420" y="-990" as="sourcePoint" />
            <mxPoint x="510" y="-1090" as="targetPoint" />
          </mxGeometry>
        </mxCell>
        <mxCell id="_ccRFipnc-8ZUnOI4sxT-37" value="GUISession" style="swimlane;fontStyle=1;align=center;verticalAlign=top;childLayout=stackLayout;horizontal=1;startSize=26;horizontalStack=0;resizeParent=1;resizeParentMax=0;resizeLast=0;collapsible=1;marginBottom=0;whiteSpace=wrap;html=1;" vertex="1" parent="1">
          <mxGeometry x="200" y="-615" width="240" height="80" as="geometry" />
        </mxCell>
        <mxCell id="_ccRFipnc-8ZUnOI4sxT-38" value="" style="line;strokeWidth=1;fillColor=none;align=left;verticalAlign=middle;spacingTop=-1;spacingLeft=3;spacingRight=3;rotatable=0;labelPosition=right;points=[];portConstraint=eastwest;strokeColor=inherit;" vertex="1" parent="_ccRFipnc-8ZUnOI4sxT-37">
          <mxGeometry y="26" width="240" height="8" as="geometry" />
        </mxCell>
        <mxCell id="_ccRFipnc-8ZUnOI4sxT-39" value="&lt;div&gt;+ Init()&lt;/div&gt;&lt;div&gt;+ GetWindowRef(): ApplicationWindow&amp;amp;&lt;br&gt;&lt;/div&gt;" style="text;strokeColor=none;fillColor=none;align=left;verticalAlign=top;spacingLeft=4;spacingRight=4;overflow=hidden;rotatable=0;points=[[0,0.5],[1,0.5]];portConstraint=eastwest;whiteSpace=wrap;html=1;" vertex="1" parent="_ccRFipnc-8ZUnOI4sxT-37">
          <mxGeometry y="34" width="240" height="46" as="geometry" />
        </mxCell>
        <mxCell id="_ccRFipnc-8ZUnOI4sxT-40" value="LSEInputData" style="swimlane;fontStyle=1;align=center;verticalAlign=top;childLayout=stackLayout;horizontal=1;startSize=26;horizontalStack=0;resizeParent=1;resizeParentMax=0;resizeLast=0;collapsible=1;marginBottom=0;whiteSpace=wrap;html=1;" vertex="1" parent="1">
          <mxGeometry x="1320" y="-505" width="310" height="98" as="geometry" />
        </mxCell>
        <mxCell id="_ccRFipnc-8ZUnOI4sxT-41" value="&lt;div&gt;+ eqsCount:&amp;nbsp;std::size_t = 0&lt;/div&gt;&lt;div&gt;+ A: Matrix&lt;/div&gt;&lt;div&gt;+ B: Vector&lt;/div&gt;&lt;div&gt;+ IsSetted: bool = false&lt;br&gt;&lt;/div&gt;" style="text;strokeColor=none;fillColor=none;align=left;verticalAlign=top;spacingLeft=4;spacingRight=4;overflow=hidden;rotatable=0;points=[[0,0.5],[1,0.5]];portConstraint=eastwest;whiteSpace=wrap;html=1;" vertex="1" parent="_ccRFipnc-8ZUnOI4sxT-40">
          <mxGeometry y="26" width="310" height="64" as="geometry" />
        </mxCell>
        <mxCell id="_ccRFipnc-8ZUnOI4sxT-42" value="" style="line;strokeWidth=1;fillColor=none;align=left;verticalAlign=middle;spacingTop=-1;spacingLeft=3;spacingRight=3;rotatable=0;labelPosition=right;points=[];portConstraint=eastwest;strokeColor=inherit;" vertex="1" parent="_ccRFipnc-8ZUnOI4sxT-40">
          <mxGeometry y="90" width="310" height="8" as="geometry" />
        </mxCell>
        <mxCell id="_ccRFipnc-8ZUnOI4sxT-43" value="LSESolveData" style="swimlane;fontStyle=1;align=center;verticalAlign=top;childLayout=stackLayout;horizontal=1;startSize=26;horizontalStack=0;resizeParent=1;resizeParentMax=0;resizeLast=0;collapsible=1;marginBottom=0;whiteSpace=wrap;html=1;" vertex="1" parent="1">
          <mxGeometry x="1320" y="-376" width="370" height="78" as="geometry" />
        </mxCell>
        <mxCell id="_ccRFipnc-8ZUnOI4sxT-44" value="&lt;div&gt;+ X: Vector&lt;/div&gt;&lt;div&gt;+ SolvingStatus: LSESolvingStatus = LSESolvingStatus::Unsolved&lt;/div&gt;" style="text;strokeColor=none;fillColor=none;align=left;verticalAlign=top;spacingLeft=4;spacingRight=4;overflow=hidden;rotatable=0;points=[[0,0.5],[1,0.5]];portConstraint=eastwest;whiteSpace=wrap;html=1;" vertex="1" parent="_ccRFipnc-8ZUnOI4sxT-43">
          <mxGeometry y="26" width="370" height="44" as="geometry" />
        </mxCell>
        <mxCell id="_ccRFipnc-8ZUnOI4sxT-45" value="" style="line;strokeWidth=1;fillColor=none;align=left;verticalAlign=middle;spacingTop=-1;spacingLeft=3;spacingRight=3;rotatable=0;labelPosition=right;points=[];portConstraint=eastwest;strokeColor=inherit;" vertex="1" parent="_ccRFipnc-8ZUnOI4sxT-43">
          <mxGeometry y="70" width="370" height="8" as="geometry" />
        </mxCell>
        <mxCell id="_ccRFipnc-8ZUnOI4sxT-46" value="ApplicationData" style="swimlane;fontStyle=1;align=center;verticalAlign=top;childLayout=stackLayout;horizontal=1;startSize=26;horizontalStack=0;resizeParent=1;resizeParentMax=0;resizeLast=0;collapsible=1;marginBottom=0;whiteSpace=wrap;html=1;" vertex="1" parent="1">
          <mxGeometry x="580" y="-635" width="480" height="100" as="geometry" />
        </mxCell>
        <mxCell id="_ccRFipnc-8ZUnOI4sxT-48" value="" style="line;strokeWidth=1;fillColor=none;align=left;verticalAlign=middle;spacingTop=-1;spacingLeft=3;spacingRight=3;rotatable=0;labelPosition=right;points=[];portConstraint=eastwest;strokeColor=inherit;" vertex="1" parent="_ccRFipnc-8ZUnOI4sxT-46">
          <mxGeometry y="26" width="480" height="8" as="geometry" />
        </mxCell>
        <mxCell id="_ccRFipnc-8ZUnOI4sxT-49" value="+ ApplicationData()&lt;br&gt;&lt;div&gt;+ GetSLEInputData(): std::weak_ptr&amp;lt;LSEInputData&amp;gt;&lt;/div&gt;+ GetSLEOutputData(): std::weak_ptr&amp;lt;LSESolveData&amp;gt;" style="text;strokeColor=none;fillColor=none;align=left;verticalAlign=top;spacingLeft=4;spacingRight=4;overflow=hidden;rotatable=0;points=[[0,0.5],[1,0.5]];portConstraint=eastwest;whiteSpace=wrap;html=1;" vertex="1" parent="_ccRFipnc-8ZUnOI4sxT-46">
          <mxGeometry y="34" width="480" height="66" as="geometry" />
        </mxCell>
        <mxCell id="_ccRFipnc-8ZUnOI4sxT-50" value="SLEConfigurator" style="swimlane;fontStyle=1;align=center;verticalAlign=top;childLayout=stackLayout;horizontal=1;startSize=26;horizontalStack=0;resizeParent=1;resizeParentMax=0;resizeLast=0;collapsible=1;marginBottom=0;whiteSpace=wrap;html=1;" vertex="1" parent="1">
          <mxGeometry x="680" y="-490" width="380" height="66" as="geometry" />
        </mxCell>
        <mxCell id="_ccRFipnc-8ZUnOI4sxT-52" value="" style="line;strokeWidth=1;fillColor=none;align=left;verticalAlign=middle;spacingTop=-1;spacingLeft=3;spacingRight=3;rotatable=0;labelPosition=right;points=[];portConstraint=eastwest;strokeColor=inherit;" vertex="1" parent="_ccRFipnc-8ZUnOI4sxT-50">
          <mxGeometry y="26" width="380" height="8" as="geometry" />
        </mxCell>
        <mxCell id="_ccRFipnc-8ZUnOI4sxT-53" value="SetSLEInputData(sleInputData: std::weak_ptr&amp;lt;SLEInputData&amp;gt;)" style="text;strokeColor=none;fillColor=none;align=left;verticalAlign=top;spacingLeft=4;spacingRight=4;overflow=hidden;rotatable=0;points=[[0,0.5],[1,0.5]];portConstraint=eastwest;whiteSpace=wrap;html=1;" vertex="1" parent="_ccRFipnc-8ZUnOI4sxT-50">
          <mxGeometry y="34" width="380" height="32" as="geometry" />
        </mxCell>
        <mxCell id="_ccRFipnc-8ZUnOI4sxT-54" value="LSESolveShower" style="swimlane;fontStyle=1;align=center;verticalAlign=top;childLayout=stackLayout;horizontal=1;startSize=26;horizontalStack=0;resizeParent=1;resizeParentMax=0;resizeLast=0;collapsible=1;marginBottom=0;whiteSpace=wrap;html=1;" vertex="1" parent="1">
          <mxGeometry x="740" y="-376" width="400" height="106" as="geometry" />
        </mxCell>
        <mxCell id="_ccRFipnc-8ZUnOI4sxT-56" value="" style="line;strokeWidth=1;fillColor=none;align=left;verticalAlign=middle;spacingTop=-1;spacingLeft=3;spacingRight=3;rotatable=0;labelPosition=right;points=[];portConstraint=eastwest;strokeColor=inherit;" vertex="1" parent="_ccRFipnc-8ZUnOI4sxT-54">
          <mxGeometry y="26" width="400" height="8" as="geometry" />
        </mxCell>
        <mxCell id="_ccRFipnc-8ZUnOI4sxT-57" value="&lt;div&gt;+ SetSLESolveData(sleInputData: std::weak_ptr&amp;lt;SLEInputData&amp;gt;)&lt;/div&gt;&lt;div&gt;+ SetSLEOutputData(sleSolveData: std::weak_ptr&amp;lt;SLESolveData&amp;gt;)&lt;/div&gt;&lt;div&gt;+ OutputSolve()&lt;/div&gt;&lt;div&gt;+ ClearSolve()&lt;/div&gt;" style="text;strokeColor=none;fillColor=none;align=left;verticalAlign=top;spacingLeft=4;spacingRight=4;overflow=hidden;rotatable=0;points=[[0,0.5],[1,0.5]];portConstraint=eastwest;whiteSpace=wrap;html=1;" vertex="1" parent="_ccRFipnc-8ZUnOI4sxT-54">
          <mxGeometry y="34" width="400" height="72" as="geometry" />
        </mxCell>
        <mxCell id="_ccRFipnc-8ZUnOI4sxT-58" value="LSESolvePanel" style="swimlane;fontStyle=1;align=center;verticalAlign=top;childLayout=stackLayout;horizontal=1;startSize=26;horizontalStack=0;resizeParent=1;resizeParentMax=0;resizeLast=0;collapsible=1;marginBottom=0;whiteSpace=wrap;html=1;" vertex="1" parent="1">
          <mxGeometry x="800" y="-225" width="480" height="106" as="geometry" />
        </mxCell>
        <mxCell id="_ccRFipnc-8ZUnOI4sxT-60" value="" style="line;strokeWidth=1;fillColor=none;align=left;verticalAlign=middle;spacingTop=-1;spacingLeft=3;spacingRight=3;rotatable=0;labelPosition=right;points=[];portConstraint=eastwest;strokeColor=inherit;" vertex="1" parent="_ccRFipnc-8ZUnOI4sxT-58">
          <mxGeometry y="26" width="480" height="8" as="geometry" />
        </mxCell>
        <mxCell id="_ccRFipnc-8ZUnOI4sxT-61" value="+ SetLSEInputData(sleInputData: std::weak_ptr&amp;lt;SLEInputData&amp;gt;)&lt;br&gt;+ SetLSESolveData(sleSolveData: std::weak_ptr&amp;lt;SLESolveData&amp;gt;)&lt;br&gt;+ SetLSESolveOutput(sleSolveOutput: std::weak_ptr&amp;lt;SLESolveOutput&amp;gt;)" style="text;strokeColor=none;fillColor=none;align=left;verticalAlign=top;spacingLeft=4;spacingRight=4;overflow=hidden;rotatable=0;points=[[0,0.5],[1,0.5]];portConstraint=eastwest;whiteSpace=wrap;html=1;" vertex="1" parent="_ccRFipnc-8ZUnOI4sxT-58">
          <mxGeometry y="34" width="480" height="72" as="geometry" />
        </mxCell>
        <mxCell id="_ccRFipnc-8ZUnOI4sxT-62" value="ApplicationWindow" style="swimlane;fontStyle=1;align=center;verticalAlign=top;childLayout=stackLayout;horizontal=1;startSize=26;horizontalStack=0;resizeParent=1;resizeParentMax=0;resizeLast=0;collapsible=1;marginBottom=0;whiteSpace=wrap;html=1;" vertex="1" parent="1">
          <mxGeometry x="160" y="-366" width="320" height="96" as="geometry" />
        </mxCell>
        <mxCell id="_ccRFipnc-8ZUnOI4sxT-64" value="" style="line;strokeWidth=1;fillColor=none;align=left;verticalAlign=middle;spacingTop=-1;spacingLeft=3;spacingRight=3;rotatable=0;labelPosition=right;points=[];portConstraint=eastwest;strokeColor=inherit;" vertex="1" parent="_ccRFipnc-8ZUnOI4sxT-62">
          <mxGeometry y="26" width="320" height="8" as="geometry" />
        </mxCell>
        <mxCell id="_ccRFipnc-8ZUnOI4sxT-65" value="+ SetApplicationData(appData: std::weak_ptr&amp;lt;ApplicationData&amp;gt;)&lt;br&gt;+ Ready()" style="text;strokeColor=none;fillColor=none;align=left;verticalAlign=top;spacingLeft=4;spacingRight=4;overflow=hidden;rotatable=0;points=[[0,0.5],[1,0.5]];portConstraint=eastwest;whiteSpace=wrap;html=1;" vertex="1" parent="_ccRFipnc-8ZUnOI4sxT-62">
          <mxGeometry y="34" width="320" height="62" as="geometry" />
        </mxCell>
        <mxCell id="_ccRFipnc-8ZUnOI4sxT-66" value="&lt;b&gt;Gtk::Frame&lt;/b&gt;" style="swimlane;fontStyle=0;childLayout=stackLayout;horizontal=1;startSize=26;fillColor=none;horizontalStack=0;resizeParent=1;resizeParentMax=0;resizeLast=0;collapsible=1;marginBottom=0;whiteSpace=wrap;html=1;" vertex="1" parent="1">
          <mxGeometry x="480" y="-185" width="200" height="80" as="geometry" />
        </mxCell>
        <mxCell id="_ccRFipnc-8ZUnOI4sxT-67" value="&lt;b&gt;Gtk::Window&lt;/b&gt;" style="swimlane;fontStyle=0;childLayout=stackLayout;horizontal=1;startSize=26;fillColor=none;horizontalStack=0;resizeParent=1;resizeParentMax=0;resizeLast=0;collapsible=1;marginBottom=0;whiteSpace=wrap;html=1;" vertex="1" parent="1">
          <mxGeometry x="220" y="-185" width="200" height="80" as="geometry" />
        </mxCell>
        <mxCell id="_ccRFipnc-8ZUnOI4sxT-68" value="" style="endArrow=diamondThin;endFill=1;endSize=24;html=1;rounded=0;" edge="1" parent="1" source="_ccRFipnc-8ZUnOI4sxT-50" target="_ccRFipnc-8ZUnOI4sxT-62">
          <mxGeometry width="160" relative="1" as="geometry">
            <mxPoint x="490" y="-325" as="sourcePoint" />
            <mxPoint x="630" y="-465" as="targetPoint" />
          </mxGeometry>
        </mxCell>
        <mxCell id="_ccRFipnc-8ZUnOI4sxT-69" value="" style="endArrow=diamondThin;endFill=1;endSize=24;html=1;rounded=0;" edge="1" parent="1" source="_ccRFipnc-8ZUnOI4sxT-54" target="_ccRFipnc-8ZUnOI4sxT-62">
          <mxGeometry width="160" relative="1" as="geometry">
            <mxPoint x="752" y="-396" as="sourcePoint" />
            <mxPoint x="647" y="-366" as="targetPoint" />
          </mxGeometry>
        </mxCell>
        <mxCell id="_ccRFipnc-8ZUnOI4sxT-70" value="" style="endArrow=diamondThin;endFill=1;endSize=24;html=1;rounded=0;" edge="1" parent="1" source="_ccRFipnc-8ZUnOI4sxT-58" target="_ccRFipnc-8ZUnOI4sxT-62">
          <mxGeometry width="160" relative="1" as="geometry">
            <mxPoint x="730" y="-308" as="sourcePoint" />
            <mxPoint x="651" y="-310" as="targetPoint" />
          </mxGeometry>
        </mxCell>
        <mxCell id="_ccRFipnc-8ZUnOI4sxT-71" value="" style="endArrow=block;endSize=16;endFill=0;html=1;rounded=0;" edge="1" parent="1" source="_ccRFipnc-8ZUnOI4sxT-62" target="_ccRFipnc-8ZUnOI4sxT-67">
          <mxGeometry width="160" relative="1" as="geometry">
            <mxPoint x="300" y="-225" as="sourcePoint" />
            <mxPoint x="460" y="-225" as="targetPoint" />
          </mxGeometry>
        </mxCell>
        <mxCell id="_ccRFipnc-8ZUnOI4sxT-72" value="" style="endArrow=block;endSize=16;endFill=0;html=1;rounded=0;" edge="1" parent="1" source="_ccRFipnc-8ZUnOI4sxT-54" target="_ccRFipnc-8ZUnOI4sxT-66">
          <mxGeometry width="160" relative="1" as="geometry">
            <mxPoint x="1130" y="-365" as="sourcePoint" />
            <mxPoint x="1370" y="-175" as="targetPoint" />
          </mxGeometry>
        </mxCell>
        <mxCell id="_ccRFipnc-8ZUnOI4sxT-73" value="" style="endArrow=block;endSize=16;endFill=0;html=1;rounded=0;" edge="1" parent="1" source="_ccRFipnc-8ZUnOI4sxT-58" target="_ccRFipnc-8ZUnOI4sxT-66">
          <mxGeometry width="160" relative="1" as="geometry">
            <mxPoint x="1220" y="-165" as="sourcePoint" />
            <mxPoint x="1380" y="-165" as="targetPoint" />
          </mxGeometry>
        </mxCell>
        <mxCell id="_ccRFipnc-8ZUnOI4sxT-74" value="" style="endArrow=block;endSize=16;endFill=0;html=1;rounded=0;" edge="1" parent="1" source="_ccRFipnc-8ZUnOI4sxT-50" target="_ccRFipnc-8ZUnOI4sxT-66">
          <mxGeometry width="160" relative="1" as="geometry">
            <mxPoint x="1140" y="-440.3399999999999" as="sourcePoint" />
            <mxPoint x="1300" y="-440.3399999999999" as="targetPoint" />
          </mxGeometry>
        </mxCell>
        <mxCell id="_ccRFipnc-8ZUnOI4sxT-75" value="" style="endArrow=diamondThin;endFill=0;endSize=24;html=1;rounded=0;" edge="1" parent="1" source="_ccRFipnc-8ZUnOI4sxT-46" target="_ccRFipnc-8ZUnOI4sxT-62">
          <mxGeometry width="160" relative="1" as="geometry">
            <mxPoint x="510" y="-445" as="sourcePoint" />
            <mxPoint x="670" y="-445" as="targetPoint" />
          </mxGeometry>
        </mxCell>
        <mxCell id="_ccRFipnc-8ZUnOI4sxT-76" value="" style="endArrow=diamondThin;endFill=1;endSize=24;html=1;rounded=0;" edge="1" parent="1" source="_ccRFipnc-8ZUnOI4sxT-40" target="_ccRFipnc-8ZUnOI4sxT-46">
          <mxGeometry width="160" relative="1" as="geometry">
            <mxPoint x="1140" y="-565" as="sourcePoint" />
            <mxPoint x="1300" y="-565" as="targetPoint" />
          </mxGeometry>
        </mxCell>
        <mxCell id="_ccRFipnc-8ZUnOI4sxT-77" value="" style="endArrow=diamondThin;endFill=1;endSize=24;html=1;rounded=0;" edge="1" parent="1" source="_ccRFipnc-8ZUnOI4sxT-43" target="_ccRFipnc-8ZUnOI4sxT-46">
          <mxGeometry width="160" relative="1" as="geometry">
            <mxPoint x="1410" y="-637" as="sourcePoint" />
            <mxPoint x="1010" y="-592" as="targetPoint" />
          </mxGeometry>
        </mxCell>
        <mxCell id="_ccRFipnc-8ZUnOI4sxT-78" value="" style="endArrow=diamondThin;endFill=0;endSize=24;html=1;rounded=0;" edge="1" parent="1" source="_ccRFipnc-8ZUnOI4sxT-40" target="_ccRFipnc-8ZUnOI4sxT-50">
          <mxGeometry width="160" relative="1" as="geometry">
            <mxPoint x="1200" y="-375" as="sourcePoint" />
            <mxPoint x="1360" y="-375" as="targetPoint" />
          </mxGeometry>
        </mxCell>
        <mxCell id="_ccRFipnc-8ZUnOI4sxT-79" value="" style="endArrow=diamondThin;endFill=0;endSize=24;html=1;rounded=0;" edge="1" parent="1" source="_ccRFipnc-8ZUnOI4sxT-43" target="_ccRFipnc-8ZUnOI4sxT-54">
          <mxGeometry width="160" relative="1" as="geometry">
            <mxPoint x="1430" y="-605" as="sourcePoint" />
            <mxPoint x="1074" y="-475" as="targetPoint" />
          </mxGeometry>
        </mxCell>
        <mxCell id="_ccRFipnc-8ZUnOI4sxT-80" value="" style="endArrow=diamondThin;endFill=0;endSize=24;html=1;rounded=0;" edge="1" parent="1" source="_ccRFipnc-8ZUnOI4sxT-40" target="_ccRFipnc-8ZUnOI4sxT-50">
          <mxGeometry width="160" relative="1" as="geometry">
            <mxPoint x="1483" y="-487" as="sourcePoint" />
            <mxPoint x="1136" y="-366" as="targetPoint" />
          </mxGeometry>
        </mxCell>
        <mxCell id="_ccRFipnc-8ZUnOI4sxT-81" value="" style="endArrow=diamondThin;endFill=0;endSize=24;html=1;rounded=0;" edge="1" parent="1" source="_ccRFipnc-8ZUnOI4sxT-43" target="_ccRFipnc-8ZUnOI4sxT-58">
          <mxGeometry width="160" relative="1" as="geometry">
            <mxPoint x="1490" y="-425" as="sourcePoint" />
            <mxPoint x="1210" y="-469" as="targetPoint" />
          </mxGeometry>
        </mxCell>
        <mxCell id="_ccRFipnc-8ZUnOI4sxT-82" value="" style="endArrow=diamondThin;endFill=0;endSize=24;html=1;rounded=0;" edge="1" parent="1" source="_ccRFipnc-8ZUnOI4sxT-40" target="_ccRFipnc-8ZUnOI4sxT-54">
          <mxGeometry width="160" relative="1" as="geometry">
            <mxPoint x="1430" y="-605" as="sourcePoint" />
            <mxPoint x="1074" y="-475" as="targetPoint" />
          </mxGeometry>
        </mxCell>
        <mxCell id="_ccRFipnc-8ZUnOI4sxT-83" value="" style="endArrow=diamondThin;endFill=0;endSize=24;html=1;rounded=0;" edge="1" parent="1" source="_ccRFipnc-8ZUnOI4sxT-40" target="_ccRFipnc-8ZUnOI4sxT-58">
          <mxGeometry width="160" relative="1" as="geometry">
            <mxPoint x="1538" y="-487" as="sourcePoint" />
            <mxPoint x="1144" y="-215" as="targetPoint" />
          </mxGeometry>
        </mxCell>
        <mxCell id="_ccRFipnc-8ZUnOI4sxT-84" value="" style="endArrow=diamondThin;endFill=1;endSize=24;html=1;rounded=0;" edge="1" parent="1" source="_ccRFipnc-8ZUnOI4sxT-46" target="_ccRFipnc-8ZUnOI4sxT-37">
          <mxGeometry width="160" relative="1" as="geometry">
            <mxPoint x="690" y="-385" as="sourcePoint" />
            <mxPoint x="490" y="-338" as="targetPoint" />
          </mxGeometry>
        </mxCell>
        <mxCell id="_ccRFipnc-8ZUnOI4sxT-85" value="" style="endArrow=diamondThin;endFill=1;endSize=24;html=1;rounded=0;" edge="1" parent="1" source="_ccRFipnc-8ZUnOI4sxT-62" target="_ccRFipnc-8ZUnOI4sxT-37">
          <mxGeometry width="160" relative="1" as="geometry">
            <mxPoint x="590" y="-575" as="sourcePoint" />
            <mxPoint x="477" y="-580" as="targetPoint" />
          </mxGeometry>
        </mxCell>
        <mxCell id="_ccRFipnc-8ZUnOI4sxT-86" value="IterationsCounter" style="swimlane;fontStyle=1;align=center;verticalAlign=top;childLayout=stackLayout;horizontal=1;startSize=26;horizontalStack=0;resizeParent=1;resizeParentMax=0;resizeLast=0;collapsible=1;marginBottom=0;whiteSpace=wrap;html=1;" vertex="1" parent="1">
          <mxGeometry x="1590" y="-1130" width="250" height="80" as="geometry" />
        </mxCell>
        <mxCell id="_ccRFipnc-8ZUnOI4sxT-87" value="" style="line;strokeWidth=1;fillColor=none;align=left;verticalAlign=middle;spacingTop=-1;spacingLeft=3;spacingRight=3;rotatable=0;labelPosition=right;points=[];portConstraint=eastwest;strokeColor=inherit;" vertex="1" parent="_ccRFipnc-8ZUnOI4sxT-86">
          <mxGeometry y="26" width="250" height="8" as="geometry" />
        </mxCell>
        <mxCell id="_ccRFipnc-8ZUnOI4sxT-88" value="&lt;div&gt;+ AddNew()&lt;/div&gt;&lt;div&gt;+ GetTotalCount()&lt;br&gt;&lt;/div&gt;" style="text;strokeColor=none;fillColor=none;align=left;verticalAlign=top;spacingLeft=4;spacingRight=4;overflow=hidden;rotatable=0;points=[[0,0.5],[1,0.5]];portConstraint=eastwest;whiteSpace=wrap;html=1;" vertex="1" parent="_ccRFipnc-8ZUnOI4sxT-86">
          <mxGeometry y="34" width="250" height="46" as="geometry" />
        </mxCell>
        <mxCell id="_ccRFipnc-8ZUnOI4sxT-90" value="" style="endArrow=open;endFill=1;endSize=12;html=1;rounded=0;" edge="1" parent="1" source="_ccRFipnc-8ZUnOI4sxT-25" target="_ccRFipnc-8ZUnOI4sxT-86">
          <mxGeometry width="160" relative="1" as="geometry">
            <mxPoint x="1418" y="-1220" as="sourcePoint" />
            <mxPoint x="1650" y="-1210" as="targetPoint" />
          </mxGeometry>
        </mxCell>
        <mxCell id="_ccRFipnc-8ZUnOI4sxT-91" value="" style="endArrow=open;endFill=1;endSize=12;html=1;rounded=0;" edge="1" parent="1" source="_ccRFipnc-8ZUnOI4sxT-22" target="_ccRFipnc-8ZUnOI4sxT-86">
          <mxGeometry width="160" relative="1" as="geometry">
            <mxPoint x="1480" y="-1040" as="sourcePoint" />
            <mxPoint x="1518" y="-1160" as="targetPoint" />
          </mxGeometry>
        </mxCell>
        <mxCell id="_ccRFipnc-8ZUnOI4sxT-92" value="" style="endArrow=open;endFill=1;endSize=12;html=1;rounded=0;" edge="1" parent="1" source="_ccRFipnc-8ZUnOI4sxT-19" target="_ccRFipnc-8ZUnOI4sxT-86">
          <mxGeometry width="160" relative="1" as="geometry">
            <mxPoint x="1600" y="-1081" as="sourcePoint" />
            <mxPoint x="1620" y="-980" as="targetPoint" />
          </mxGeometry>
        </mxCell>
        <mxCell id="_ccRFipnc-8ZUnOI4sxT-93" value="&lt;div&gt;&lt;i&gt;&amp;lt;&amp;lt;enumeration&amp;gt;&amp;gt;&lt;/i&gt;&lt;br&gt;&lt;/div&gt;&lt;div&gt;&lt;b&gt;SLESolvingMethodIndex&lt;/b&gt;&lt;/div&gt;" style="swimlane;fontStyle=0;childLayout=stackLayout;horizontal=1;startSize=50;fillColor=none;horizontalStack=0;resizeParent=1;resizeParentMax=0;resizeLast=0;collapsible=1;marginBottom=0;whiteSpace=wrap;html=1;" vertex="1" parent="1">
          <mxGeometry x="1320" y="-920" width="170" height="120" as="geometry">
            <mxRectangle x="400" y="40" width="130" height="50" as="alternateBounds" />
          </mxGeometry>
        </mxCell>
        <mxCell id="_ccRFipnc-8ZUnOI4sxT-94" value="LUP&lt;br&gt;GaussHoletskiy&lt;br&gt;Rotation" style="text;strokeColor=none;fillColor=none;align=left;verticalAlign=top;spacingLeft=4;spacingRight=4;overflow=hidden;rotatable=0;points=[[0,0.5],[1,0.5]];portConstraint=eastwest;whiteSpace=wrap;html=1;" vertex="1" parent="_ccRFipnc-8ZUnOI4sxT-93">
          <mxGeometry y="50" width="170" height="70" as="geometry" />
        </mxCell>
        <mxCell id="_ccRFipnc-8ZUnOI4sxT-96" value="ComboBoxMethodRecord" style="swimlane;fontStyle=1;align=center;verticalAlign=top;childLayout=stackLayout;horizontal=1;startSize=26;horizontalStack=0;resizeParent=1;resizeParentMax=0;resizeLast=0;collapsible=1;marginBottom=0;whiteSpace=wrap;html=1;" vertex="1" parent="1">
          <mxGeometry x="1560" y="-920" width="420" height="110" as="geometry" />
        </mxCell>
        <mxCell id="_ccRFipnc-8ZUnOI4sxT-97" value="" style="line;strokeWidth=1;fillColor=none;align=left;verticalAlign=middle;spacingTop=-1;spacingLeft=3;spacingRight=3;rotatable=0;labelPosition=right;points=[];portConstraint=eastwest;strokeColor=inherit;" vertex="1" parent="_ccRFipnc-8ZUnOI4sxT-96">
          <mxGeometry y="26" width="420" height="8" as="geometry" />
        </mxCell>
        <mxCell id="_ccRFipnc-8ZUnOI4sxT-98" value="&lt;div&gt;+ ComboBoxMethodRecord(solvingMethodIndex: SLESolvingMethodIndex)&lt;/div&gt;&lt;div&gt;+ GetSolvingMethodIndex(): SLESolvingMethodIndex&lt;br&gt;&lt;/div&gt;&lt;div&gt;+ GetMethodName(): const std::string&amp;amp;&lt;/div&gt;&lt;div&gt;+ GetMethodPracticalItersComplexity(): const std::string&amp;amp;&lt;br&gt;&lt;/div&gt;" style="text;strokeColor=none;fillColor=none;align=left;verticalAlign=top;spacingLeft=4;spacingRight=4;overflow=hidden;rotatable=0;points=[[0,0.5],[1,0.5]];portConstraint=eastwest;whiteSpace=wrap;html=1;" vertex="1" parent="_ccRFipnc-8ZUnOI4sxT-96">
          <mxGeometry y="34" width="420" height="76" as="geometry" />
        </mxCell>
        <mxCell id="_ccRFipnc-8ZUnOI4sxT-99" value="" style="endArrow=open;endFill=1;endSize=12;html=1;rounded=0;" edge="1" parent="1" source="_ccRFipnc-8ZUnOI4sxT-96" target="_ccRFipnc-8ZUnOI4sxT-93">
          <mxGeometry width="160" relative="1" as="geometry">
            <mxPoint x="1611" y="-1040" as="sourcePoint" />
            <mxPoint x="1500" y="-700" as="targetPoint" />
          </mxGeometry>
        </mxCell>
        <mxCell id="_ccRFipnc-8ZUnOI4sxT-100" value="SLEInputData" style="swimlane;fontStyle=1;align=center;verticalAlign=top;childLayout=stackLayout;horizontal=1;startSize=26;horizontalStack=0;resizeParent=1;resizeParentMax=0;resizeLast=0;collapsible=1;marginBottom=0;whiteSpace=wrap;html=1;" vertex="1" parent="1">
          <mxGeometry x="260" y="-970" width="320" height="300" as="geometry" />
        </mxCell>
        <mxCell id="_ccRFipnc-8ZUnOI4sxT-101" value="" style="line;strokeWidth=1;fillColor=none;align=left;verticalAlign=middle;spacingTop=-1;spacingLeft=3;spacingRight=3;rotatable=0;labelPosition=right;points=[];portConstraint=eastwest;strokeColor=inherit;" vertex="1" parent="_ccRFipnc-8ZUnOI4sxT-100">
          <mxGeometry y="26" width="320" height="8" as="geometry" />
        </mxCell>
        <mxCell id="_ccRFipnc-8ZUnOI4sxT-102" value="+ SLEInputData()&lt;br&gt;+ ClearData()&lt;br&gt;+ SetEquationsCount(eqsCount: std::size_t)&lt;br&gt;+ GetEquationsCount(): std::optional&amp;lt;std::size_t&amp;gt;&lt;br&gt;+ IsEquationsCountSetted(): bool&lt;br&gt;+ SetVariablesCoefficients(a: auto&amp;amp;&amp;amp;)&lt;br&gt;+ SetFreeCoefficients(b: auto&amp;amp;&amp;amp;)&lt;br&gt;+ GetVariablesCoefficientsRef(): std::optional&amp;lt;std::reference_wrapper&amp;lt;Matrix&amp;gt;&amp;gt;&lt;br&gt;+ GetVariablesCoefficientsRef(): std::optional&amp;lt;std::reference_wrapper&amp;lt;const Matrix&amp;gt;&amp;gt;&lt;br&gt;+ GetFreeCoefficientsRef(): std::optional&amp;lt;std::reference_wrapper&amp;lt;Vector&amp;gt;&amp;gt;&lt;br&gt;+ GetFreeCoefficientsRef(): std::optional&amp;lt;std::reference_wrapper&amp;lt;const Vector&amp;gt;&amp;gt;&lt;br&gt;+ ConfirmData()&lt;br&gt;+ bool IsDataConfirmed()&lt;div&gt;&lt;br/&gt;&lt;/div&gt;" style="text;strokeColor=none;fillColor=none;align=left;verticalAlign=top;spacingLeft=4;spacingRight=4;overflow=hidden;rotatable=0;points=[[0,0.5],[1,0.5]];portConstraint=eastwest;whiteSpace=wrap;html=1;" vertex="1" parent="_ccRFipnc-8ZUnOI4sxT-100">
          <mxGeometry y="34" width="320" height="266" as="geometry" />
        </mxCell>
        <mxCell id="_ccRFipnc-8ZUnOI4sxT-103" value="" style="endArrow=diamondThin;endFill=1;endSize=24;html=1;rounded=0;" edge="1" parent="1" source="_ccRFipnc-8ZUnOI4sxT-102" target="_ccRFipnc-8ZUnOI4sxT-46">
          <mxGeometry width="160" relative="1" as="geometry">
            <mxPoint x="590" y="-565" as="sourcePoint" />
            <mxPoint x="450" y="-565" as="targetPoint" />
          </mxGeometry>
        </mxCell>
        <mxCell id="_ccRFipnc-8ZUnOI4sxT-104" value="&lt;div&gt;&lt;i&gt;&amp;lt;&amp;lt;enumeration&amp;gt;&amp;gt;&lt;/i&gt;&lt;br&gt;&lt;/div&gt;&lt;div&gt;&lt;b&gt;SLESolvingStatus&lt;/b&gt;&lt;/div&gt;" style="swimlane;fontStyle=0;childLayout=stackLayout;horizontal=1;startSize=50;fillColor=none;horizontalStack=0;resizeParent=1;resizeParentMax=0;resizeLast=0;collapsible=1;marginBottom=0;whiteSpace=wrap;html=1;" vertex="1" parent="1">
          <mxGeometry x="640" y="-960" width="170" height="120" as="geometry">
            <mxRectangle x="400" y="40" width="130" height="50" as="alternateBounds" />
          </mxGeometry>
        </mxCell>
        <mxCell id="_ccRFipnc-8ZUnOI4sxT-105" value="&lt;div&gt;Unsolved&lt;/div&gt;&lt;div&gt;SolvedSuccessfully&lt;/div&gt;&lt;div&gt;SolvedFailful&lt;br&gt;&lt;/div&gt;" style="text;strokeColor=none;fillColor=none;align=left;verticalAlign=top;spacingLeft=4;spacingRight=4;overflow=hidden;rotatable=0;points=[[0,0.5],[1,0.5]];portConstraint=eastwest;whiteSpace=wrap;html=1;" vertex="1" parent="_ccRFipnc-8ZUnOI4sxT-104">
          <mxGeometry y="50" width="170" height="70" as="geometry" />
        </mxCell>
        <mxCell id="_ccRFipnc-8ZUnOI4sxT-106" value="SLESolveData" style="swimlane;fontStyle=1;align=center;verticalAlign=top;childLayout=stackLayout;horizontal=1;startSize=26;horizontalStack=0;resizeParent=1;resizeParentMax=0;resizeLast=0;collapsible=1;marginBottom=0;whiteSpace=wrap;html=1;" vertex="1" parent="1">
          <mxGeometry x="880" y="-920" width="320" height="170" as="geometry" />
        </mxCell>
        <mxCell id="_ccRFipnc-8ZUnOI4sxT-107" value="" style="line;strokeWidth=1;fillColor=none;align=left;verticalAlign=middle;spacingTop=-1;spacingLeft=3;spacingRight=3;rotatable=0;labelPosition=right;points=[];portConstraint=eastwest;strokeColor=inherit;" vertex="1" parent="_ccRFipnc-8ZUnOI4sxT-106">
          <mxGeometry y="26" width="320" height="8" as="geometry" />
        </mxCell>
        <mxCell id="_ccRFipnc-8ZUnOI4sxT-108" value="SLESolveData()&lt;br&gt;SetVarsSolve(x: auto&amp;amp;&amp;amp;)&lt;br&gt;GetSolveRef(): std::optional&amp;lt;std::reference_wrapper&amp;lt;Vector&amp;gt;&amp;gt;&lt;br&gt;GetSolveRef(): std::optional&amp;lt;std::reference_wrapper&amp;lt;const Vector&amp;gt;&amp;gt;&lt;br&gt;SetSolvingStatus(sleSolvingStatus: SLESolvingStatus)&lt;br&gt;GetSolvingStatus(): SLESolvingStatus" style="text;strokeColor=none;fillColor=none;align=left;verticalAlign=top;spacingLeft=4;spacingRight=4;overflow=hidden;rotatable=0;points=[[0,0.5],[1,0.5]];portConstraint=eastwest;whiteSpace=wrap;html=1;" vertex="1" parent="_ccRFipnc-8ZUnOI4sxT-106">
          <mxGeometry y="34" width="320" height="136" as="geometry" />
        </mxCell>
        <mxCell id="_ccRFipnc-8ZUnOI4sxT-109" value="" style="endArrow=diamondThin;endFill=1;endSize=24;html=1;rounded=0;" edge="1" parent="1" source="_ccRFipnc-8ZUnOI4sxT-106" target="_ccRFipnc-8ZUnOI4sxT-46">
          <mxGeometry width="160" relative="1" as="geometry">
            <mxPoint x="590" y="-702" as="sourcePoint" />
            <mxPoint x="725" y="-625" as="targetPoint" />
          </mxGeometry>
        </mxCell>
        <mxCell id="_ccRFipnc-8ZUnOI4sxT-110" value="" style="endArrow=open;endFill=1;endSize=12;html=1;rounded=0;" edge="1" parent="1" source="_ccRFipnc-8ZUnOI4sxT-106" target="_ccRFipnc-8ZUnOI4sxT-104">
          <mxGeometry width="160" relative="1" as="geometry">
            <mxPoint x="880" y="-1065" as="sourcePoint" />
            <mxPoint x="850" y="-1063" as="targetPoint" />
          </mxGeometry>
        </mxCell>
      </root>
    </mxGraphModel>
  </diagram>
</mxfile>
